<mxfile host="Electron" agent="Mozilla/5.0 (Macintosh; Intel Mac OS X 10_15_7) AppleWebKit/537.36 (KHTML, like Gecko) draw.io/26.2.15 Chrome/134.0.6998.205 Electron/35.2.1 Safari/537.36" version="26.2.15">
  <diagram name="Page-1" id="E9e7qBZs7RoKP33l-C1c">
    <mxGraphModel dx="1796" dy="1715" grid="1" gridSize="10" guides="1" tooltips="1" connect="1" arrows="1" fold="1" page="1" pageScale="1" pageWidth="850" pageHeight="1100" math="0" shadow="0">
      <root>
        <mxCell id="0" />
        <mxCell id="1" parent="0" />
        <mxCell id="-dfsXuPhAGWFAXaVfUa6-1" value="Address Offer Cache" style="shape=umlLifeline;perimeter=lifelinePerimeter;whiteSpace=wrap;html=1;container=1;dropTarget=0;collapsible=0;recursiveResize=0;outlineConnect=0;portConstraint=eastwest;newEdgeStyle={&quot;curved&quot;:0,&quot;rounded&quot;:0};" vertex="1" parent="1">
          <mxGeometry x="520" y="-670" width="100" height="190" as="geometry" />
        </mxCell>
        <mxCell id="-dfsXuPhAGWFAXaVfUa6-2" value="API" style="shape=umlLifeline;perimeter=lifelinePerimeter;whiteSpace=wrap;html=1;container=1;dropTarget=0;collapsible=0;recursiveResize=0;outlineConnect=0;portConstraint=eastwest;newEdgeStyle={&quot;curved&quot;:0,&quot;rounded&quot;:0};" vertex="1" parent="1">
          <mxGeometry x="980" y="-670" width="100" height="190" as="geometry" />
        </mxCell>
        <mxCell id="-dfsXuPhAGWFAXaVfUa6-3" value="Share DB" style="shape=umlLifeline;perimeter=lifelinePerimeter;whiteSpace=wrap;html=1;container=1;dropTarget=0;collapsible=0;recursiveResize=0;outlineConnect=0;portConstraint=eastwest;newEdgeStyle={&quot;curved&quot;:0,&quot;rounded&quot;:0};" vertex="1" parent="1">
          <mxGeometry x="830" y="-670" width="100" height="190" as="geometry" />
        </mxCell>
        <mxCell id="-dfsXuPhAGWFAXaVfUa6-28" value="" style="html=1;points=[[0,0,0,0,5],[0,1,0,0,-5],[1,0,0,0,5],[1,1,0,0,-5]];perimeter=orthogonalPerimeter;outlineConnect=0;targetShapes=umlLifeline;portConstraint=eastwest;newEdgeStyle={&quot;curved&quot;:0,&quot;rounded&quot;:0};" vertex="1" parent="-dfsXuPhAGWFAXaVfUa6-3">
          <mxGeometry x="45" y="80" width="10" height="50" as="geometry" />
        </mxCell>
        <mxCell id="-dfsXuPhAGWFAXaVfUa6-5" value="User Offer Cache" style="shape=umlLifeline;perimeter=lifelinePerimeter;whiteSpace=wrap;html=1;container=1;dropTarget=0;collapsible=0;recursiveResize=0;outlineConnect=0;portConstraint=eastwest;newEdgeStyle={&quot;curved&quot;:0,&quot;rounded&quot;:0};" vertex="1" parent="1">
          <mxGeometry x="680" y="-670" width="100" height="190" as="geometry" />
        </mxCell>
        <mxCell id="-dfsXuPhAGWFAXaVfUa6-7" value="Client" style="shape=umlLifeline;perimeter=lifelinePerimeter;whiteSpace=wrap;html=1;container=1;dropTarget=0;collapsible=0;recursiveResize=0;outlineConnect=0;portConstraint=eastwest;newEdgeStyle={&quot;curved&quot;:0,&quot;rounded&quot;:0};" vertex="1" parent="1">
          <mxGeometry x="180" y="-670" width="105" height="190" as="geometry" />
        </mxCell>
        <mxCell id="-dfsXuPhAGWFAXaVfUa6-8" value="" style="html=1;points=[[0,0,0,0,5],[0,1,0,0,-5],[1,0,0,0,5],[1,1,0,0,-5]];perimeter=orthogonalPerimeter;outlineConnect=0;targetShapes=umlLifeline;portConstraint=eastwest;newEdgeStyle={&quot;curved&quot;:0,&quot;rounded&quot;:0};" vertex="1" parent="-dfsXuPhAGWFAXaVfUa6-7">
          <mxGeometry x="47.5" y="60" width="10" height="110" as="geometry" />
        </mxCell>
        <mxCell id="-dfsXuPhAGWFAXaVfUa6-9" value="Server" style="shape=umlLifeline;perimeter=lifelinePerimeter;whiteSpace=wrap;html=1;container=1;dropTarget=0;collapsible=0;recursiveResize=0;outlineConnect=0;portConstraint=eastwest;newEdgeStyle={&quot;curved&quot;:0,&quot;rounded&quot;:0};" vertex="1" parent="1">
          <mxGeometry x="350" y="-670" width="105" height="190" as="geometry" />
        </mxCell>
        <mxCell id="-dfsXuPhAGWFAXaVfUa6-10" value="" style="html=1;points=[[0,0,0,0,5],[0,1,0,0,-5],[1,0,0,0,5],[1,1,0,0,-5]];perimeter=orthogonalPerimeter;outlineConnect=0;targetShapes=umlLifeline;portConstraint=eastwest;newEdgeStyle={&quot;curved&quot;:0,&quot;rounded&quot;:0};" vertex="1" parent="-dfsXuPhAGWFAXaVfUa6-9">
          <mxGeometry x="47.5" y="60" width="10" height="90" as="geometry" />
        </mxCell>
        <mxCell id="-dfsXuPhAGWFAXaVfUa6-13" value="" style="shape=umlLifeline;perimeter=lifelinePerimeter;whiteSpace=wrap;html=1;container=1;dropTarget=0;collapsible=0;recursiveResize=0;outlineConnect=0;portConstraint=eastwest;newEdgeStyle={&quot;curved&quot;:0,&quot;rounded&quot;:0};participant=umlActor;" vertex="1" parent="1">
          <mxGeometry x="90" y="-670" width="20" height="190" as="geometry" />
        </mxCell>
        <mxCell id="-dfsXuPhAGWFAXaVfUa6-15" value="Open Share Link" style="html=1;verticalAlign=bottom;endArrow=block;curved=0;rounded=0;" edge="1" parent="1" source="-dfsXuPhAGWFAXaVfUa6-25" target="-dfsXuPhAGWFAXaVfUa6-8">
          <mxGeometry width="80" relative="1" as="geometry">
            <mxPoint x="105" y="-590" as="sourcePoint" />
            <mxPoint x="225" y="-630" as="targetPoint" />
            <Array as="points">
              <mxPoint x="170" y="-590" />
            </Array>
          </mxGeometry>
        </mxCell>
        <mxCell id="-dfsXuPhAGWFAXaVfUa6-16" value="Get Shared Search&lt;div&gt;(shareHash&lt;span style=&quot;background-color: light-dark(#ffffff, var(--ge-dark-color, #121212)); color: light-dark(rgb(0, 0, 0), rgb(255, 255, 255));&quot;&gt;)&lt;/span&gt;&lt;/div&gt;" style="html=1;verticalAlign=bottom;endArrow=block;curved=0;rounded=0;" edge="1" parent="1" source="-dfsXuPhAGWFAXaVfUa6-8" target="-dfsXuPhAGWFAXaVfUa6-10">
          <mxGeometry x="-0.0047" width="80" relative="1" as="geometry">
            <mxPoint x="280" y="-640" as="sourcePoint" />
            <mxPoint x="360" y="-640" as="targetPoint" />
            <Array as="points">
              <mxPoint x="310" y="-590" />
            </Array>
            <mxPoint as="offset" />
          </mxGeometry>
        </mxCell>
        <mxCell id="-dfsXuPhAGWFAXaVfUa6-17" value="Get&amp;nbsp;&lt;span style=&quot;background-color: light-dark(#ffffff, var(--ge-dark-color, #121212)); color: light-dark(rgb(0, 0, 0), rgb(255, 255, 255));&quot;&gt;Shared Search (shareHash)&lt;/span&gt;" style="html=1;verticalAlign=bottom;endArrow=block;curved=0;rounded=0;" edge="1" parent="1" source="-dfsXuPhAGWFAXaVfUa6-10" target="-dfsXuPhAGWFAXaVfUa6-28">
          <mxGeometry x="-0.0032" width="80" relative="1" as="geometry">
            <mxPoint x="407.5" y="-230" as="sourcePoint" />
            <mxPoint x="725" y="-580" as="targetPoint" />
            <Array as="points">
              <mxPoint x="470" y="-580" />
            </Array>
            <mxPoint as="offset" />
          </mxGeometry>
        </mxCell>
        <mxCell id="-dfsXuPhAGWFAXaVfUa6-18" value="Shared Search" style="html=1;verticalAlign=bottom;endArrow=open;dashed=1;endSize=8;curved=0;rounded=0;" edge="1" parent="1" source="-dfsXuPhAGWFAXaVfUa6-28" target="-dfsXuPhAGWFAXaVfUa6-10">
          <mxGeometry relative="1" as="geometry">
            <mxPoint x="725" y="-550" as="sourcePoint" />
            <mxPoint x="407.5" y="-200" as="targetPoint" />
            <Array as="points">
              <mxPoint x="500" y="-550" />
            </Array>
          </mxGeometry>
        </mxCell>
        <mxCell id="-dfsXuPhAGWFAXaVfUa6-21" value="Shared Search" style="html=1;verticalAlign=bottom;endArrow=open;dashed=1;endSize=8;curved=0;rounded=0;" edge="1" parent="1" source="-dfsXuPhAGWFAXaVfUa6-10" target="-dfsXuPhAGWFAXaVfUa6-8">
          <mxGeometry relative="1" as="geometry">
            <mxPoint x="397.5" y="-50" as="sourcePoint" />
            <mxPoint x="237.5" y="-50" as="targetPoint" />
            <Array as="points">
              <mxPoint x="320" y="-530" />
            </Array>
            <mxPoint as="offset" />
          </mxGeometry>
        </mxCell>
        <mxCell id="-dfsXuPhAGWFAXaVfUa6-24" value="" style="shape=umlLifeline;perimeter=lifelinePerimeter;whiteSpace=wrap;html=1;container=1;dropTarget=0;collapsible=0;recursiveResize=0;outlineConnect=0;portConstraint=eastwest;newEdgeStyle={&quot;curved&quot;:0,&quot;rounded&quot;:0};participant=umlActor;" vertex="1" parent="1">
          <mxGeometry x="-30" y="-670" width="20" height="190" as="geometry" />
        </mxCell>
        <mxCell id="-dfsXuPhAGWFAXaVfUa6-25" value="" style="html=1;points=[[0,0,0,0,5],[0,1,0,0,-5],[1,0,0,0,5],[1,1,0,0,-5]];perimeter=orthogonalPerimeter;outlineConnect=0;targetShapes=umlLifeline;portConstraint=eastwest;newEdgeStyle={&quot;curved&quot;:0,&quot;rounded&quot;:0};" vertex="1" parent="-dfsXuPhAGWFAXaVfUa6-24">
          <mxGeometry x="5" y="60" width="10" height="110" as="geometry" />
        </mxCell>
        <mxCell id="-dfsXuPhAGWFAXaVfUa6-26" value="" style="html=1;verticalAlign=bottom;endArrow=open;dashed=1;endSize=8;curved=0;rounded=0;" edge="1" parent="1" source="-dfsXuPhAGWFAXaVfUa6-8" target="-dfsXuPhAGWFAXaVfUa6-25">
          <mxGeometry x="-0.0062" relative="1" as="geometry">
            <mxPoint x="95" y="-320" as="sourcePoint" />
            <mxPoint x="115" y="-330" as="targetPoint" />
            <Array as="points">
              <mxPoint x="50" y="-520" />
            </Array>
            <mxPoint as="offset" />
          </mxGeometry>
        </mxCell>
      </root>
    </mxGraphModel>
  </diagram>
</mxfile>
